<?xml version="1.0" encoding="utf-8"?>
<!-- Generator: Adobe Illustrator 23.1.1, SVG Export Plug-In . SVG Version: 6.00 Build 0)  -->
<svg version="1.1" id="Layer_1" xmlns="http://www.w3.org/2000/svg" xmlns:xlink="http://www.w3.org/1999/xlink" x="0px" y="0px"
	 viewBox="0 0 359.559 78.174" style="enable-background:new 0 0 359.559 78.174;" xml:space="preserve">
<style type="text/css">
	.st0{fill:#B8182C;}
</style>
<g>
	<path class="st0" d="M74.63,22.833c-1.84,0.633-3.627,1.158-5.383,1.596l2.903,3.399l0.598,0.712h-0.933h-5.277
		c-0.529,1.829-3.375,11.912-4.742,17.497c-1.231,5.021-6.016,5.707-7.562,5.802c-1.429,3.143-3.101,6.004-4.93,8.56
		c3.985,2.762,7.92,6.381,11.657,11.09c10.389-7.025,17.212-18.915,17.212-32.404C78.173,33.283,76.9,27.786,74.63,22.833"/>
	<path class="st0" d="M48.044,62.097c-6.781,8.716-14.823,13.555-17.661,15.097c2.804,0.637,5.707,0.98,8.705,0.98
		c7.314,0,14.16-2.02,20.015-5.509C55.53,68.196,51.796,64.737,48.044,62.097"/>
	<path class="st0" d="M20.364,54.414c-1.512,0.103-2.945,0.282-4.29,0.495l-1.684,6.317l-0.209,0.777l-0.526-0.598
		c-1.493-1.65-2.689-3.417-3.649-5.12c-2.697,0.796-4.499,1.6-5.044,1.851c4.869,8.705,12.952,15.349,22.655,18.324
		C23.861,68.837,21.446,61.481,20.364,54.414"/>
	<path class="st0" d="M8.998,54.394C7.23,50.756,6.579,47.8,6.541,47.613l-0.023-0.107l0.034-0.095c0,0,3.741-14.274,3.741-14.286
		c1.642-5.687,6.865-5.371,6.884-5.36h6.088c1.546-3.786,3.47-7.162,5.581-10.114C22.057,12.657,18.514,7.19,17.924,6.234
		C7.15,13.194,0,25.304,0,39.087c0,6.141,1.417,11.951,3.943,17.128C4.343,56.032,6.16,55.232,8.998,54.394"/>
	<path class="st0" d="M30.037,16.042C36.658,7.474,44.544,2.617,47.58,0.937C44.848,0.335,42.01,0,39.085,0
		c-7.021,0-13.6,1.859-19.3,5.109C20.319,6.011,23.603,11.28,30.037,16.042"/>
	<path class="st0" d="M51.797,51.869c-1.863,0-4.835-0.007-7.894-0.107c-2.895-0.084-4.826-0.51-6.674-1.687l-1.085,4.015
		c3.71,1.071,7.516,2.709,11.31,5.086C49.053,56.978,50.512,54.517,51.797,51.869"/>
	<path class="st0" d="M46.185,60.881c-3.562-2.251-7.12-3.794-10.579-4.815l-5.002,18.472C33.96,72.542,40.516,68.051,46.185,60.881
		"/>
	<path class="st0" d="M33.505,55.496c-3.871-0.933-7.57-1.238-10.953-1.177c0.964,6.16,2.995,12.575,6.077,19.204L33.505,55.496z"/>
	<path class="st0" d="M25.601,27.764h1.703c6.167,0,7.817,1.188,12.011,6.244l2.633-9.722c-4.385-1.356-8.126-3.273-11.284-5.364
		C28.773,21.539,27.029,24.484,25.601,27.764"/>
	<path class="st0" d="M31.875,17.315c2.956,1.966,6.476,3.741,10.606,5.002l5.101-18.846C44.214,5.475,37.563,10.039,31.875,17.315"
		/>
	<path class="st0" d="M44.585,22.885c2.857,0.716,6.004,1.135,9.398,1.212l1.535-0.991C54.52,17.125,52.543,10.923,49.556,4.5
		L44.585,22.885z"/>
	<path class="st0" d="M51.008,26.029c-2.461-0.221-4.793-0.609-6.96-1.154L41.019,36.06l9.075,10.933l4.792-18.453h-6.297H47.13
		l1.23-0.785L51.008,26.029z"/>
	<path class="st0" d="M34.031,53.53l1.337-4.907c-0.884-0.834-1.813-1.851-2.861-3.135c-2.67-3.269-6.751-8.358-9.116-11.322
		c-1.513,5.76-1.878,11.817-1.117,18.156C25.917,52.239,29.89,52.555,34.031,53.53"/>
	<path class="st0" d="M16.643,52.774c1.089-0.148,2.24-0.274,3.436-0.358c-0.514-4.331-0.495-8.545,0.019-12.636L16.643,52.774z"/>
	<path class="st0" d="M57.507,21.814l5.813-3.764l0.313-0.209l0.255,0.281l3.79,4.469c1.939-0.461,3.924-1.04,5.985-1.733
		C68.871,11.783,60.619,4.827,50.65,1.745C54.033,8.663,56.318,15.357,57.507,21.814"/>
	<path class="st0" d="M349.356,63.476c0,2.563,2.077,4.64,4.64,4.64c2.563,0,4.64-2.077,4.64-4.64s-2.077-4.64-4.64-4.64
		C351.433,58.836,349.356,60.913,349.356,63.476 M353.996,57.925c3.072,0,5.563,2.491,5.563,5.563c0,3.072-2.491,5.563-5.563,5.563
		c-3.072,0-5.563-2.491-5.563-5.563C348.433,60.416,350.924,57.925,353.996,57.925"/>
	<path class="st0" d="M354.472,63.091c-0.031,0.004-0.061,0.003-0.093,0.006c-0.017,0.002-0.032,0.006-0.049,0.008
		c-0.031,0.002-0.067,0.001-0.099,0.003c-0.084,0.006-0.168,0.018-0.25,0.018h-0.271h-1.013v-1.982h1.013h0.271
		c0.082,0,0.166,0.012,0.25,0.018c0.032,0.002,0.068,0.001,0.099,0.004c0.017,0.001,0.032,0.005,0.049,0.007
		c0.032,0.004,0.062,0.002,0.093,0.007c0.017,0.002,0.029,0.011,0.045,0.013c0.119,0.021,0.233,0.05,0.333,0.094
		c0.011,0.005,0.018,0.012,0.028,0.017c0.011,0.005,0.026,0.006,0.037,0.011c0.128,0.067,0.232,0.162,0.313,0.286
		c0.081,0.123,0.122,0.29,0.122,0.498c0,0.014-0.004,0.023-0.004,0.036s0.004,0.023,0.004,0.036c0,0.209-0.041,0.375-0.122,0.499
		c-0.081,0.123-0.185,0.218-0.313,0.285c-0.011,0.006-0.026,0.006-0.037,0.011c-0.01,0.005-0.017,0.013-0.028,0.018
		c-0.1,0.043-0.214,0.072-0.333,0.093C354.501,63.08,354.489,63.088,354.472,63.091 M354.812,63.839
		c0.466-0.047,0.723-0.202,1.036-0.463c0.314-0.262,0.471-0.673,0.471-1.234c0-0.599-0.178-1.045-0.535-1.34
		c-0.356-0.294-0.905-0.442-1.647-0.442h-2.409v6.231h0.969V63.91h1.032l1.697,2.681h1.168L354.812,63.839z"/>
	<path class="st0" d="M154.33,21.391c-9.751,0-17.656,7.904-17.656,17.655c0,9.75,7.905,17.655,17.656,17.655
		c9.75,0,17.655-7.905,17.655-17.655C171.985,29.295,164.08,21.391,154.33,21.391 M165.213,39.046
		c0,6.011-4.873,10.883-10.883,10.883c-6.011,0-10.884-4.872-10.884-10.883c0-6.011,4.873-10.883,10.884-10.883
		C160.34,28.163,165.213,33.035,165.213,39.046"/>
	<path class="st0" d="M123.961,54.855c0.668,0.95,1.979,1.572,3.318,1.572c2.385,0,4.317-1.924,4.339-4.304l0.004-27.501
		c0-1.446-1.509-2.954-3.369-2.954c-1.861,0-3.37,1.508-3.37,3.369v18.679l-0.006,0.002c0.001,0.006,0.006,0.009,0.006,0.015
		c0,0.141-0.113,0.255-0.254,0.255c-0.089,0-0.155-0.054-0.2-0.123l-0.007,0.002l-14.365-20.335l-0.005,0.003
		c-0.784-1.127-2.085-1.867-3.562-1.867c-2.384,0-4.316,1.923-4.338,4.302l-0.004,27.088c0,1.861,1.508,3.369,3.369,3.369
		c1.86,0,3.369-1.508,3.369-3.369V34.344c0-0.141,0.114-0.255,0.254-0.255c0.088,0,0.153,0.052,0.199,0.119L123.961,54.855z"/>
	<path class="st0" d="M338.326,54.855c0.668,0.95,1.979,1.572,3.318,1.572c2.385,0,4.317-1.924,4.339-4.304l0.004-27.501
		c0-1.446-1.509-2.954-3.369-2.954c-1.861,0-3.37,1.508-3.37,3.369v18.679l-0.006,0.002c0,0.006,0.006,0.009,0.006,0.015
		c0,0.141-0.113,0.255-0.254,0.255c-0.089,0-0.155-0.054-0.2-0.123l-0.007,0.002l-14.365-20.335l-0.005,0.003
		c-0.784-1.127-2.085-1.867-3.562-1.867c-2.384,0-4.316,1.923-4.338,4.302l-0.004,27.088c0,1.861,1.508,3.369,3.369,3.369
		c1.86,0,3.369-1.508,3.369-3.369V34.344c0-0.141,0.114-0.255,0.254-0.255c0.088,0,0.153,0.052,0.199,0.119L338.326,54.855z"/>
	<path class="st0" d="M244.492,41.774l-0.012-0.002c0.024-0.161,0.05-0.323,0.05-0.491c0-1.861-1.509-3.369-3.369-3.369h-0.69
		h-10.207h-0.689c-1.861,0-3.369,1.508-3.369,3.369c0,1.861,1.508,3.369,3.369,3.369h0.689h6.099
		c-2.212,3.685-6.499,5.86-11.006,5.156c-2.771-0.432-5.134-1.873-6.772-3.891c-1.529-1.882-2.426-4.281-2.423-6.868
		c0-2.599,0.932-5.208,2.811-7.29c4.026-4.463,10.907-4.817,15.371-0.791l0.003-0.003c1.412,1.222,3.548,1.067,4.769-0.346
		c1.222-1.412,1.176-3.457-0.236-4.679c-7.24-6.531-18.404-5.957-24.935,1.283c-3.047,3.378-4.548,7.609-4.547,11.826
		c-0.004,4.195,1.45,8.084,3.93,11.136h0.001v0.001c2.657,3.274,6.489,5.613,10.984,6.313c9.545,1.489,18.497-4.972,20.124-14.46
		c0.012-0.05,0.022-0.1,0.032-0.15C244.475,41.848,244.486,41.812,244.492,41.774"/>
	<path class="st0" d="M183.79,35.88h-0.003c-0.003-0.004-0.011-0.027-0.011-0.095V28.51c0-0.089,0.015-0.104,0.105-0.104h10.024
		c2.607,0,3.681,2.279,3.681,3.626c0,1.55-1.258,3.858-3.681,3.858h-10.024C183.816,35.89,183.79,35.88,183.79,35.88
		 M183.776,42.197c0-0.088,0.015-0.103,0.103-0.103h7.499c0.135,0,0.18,0.033,0.248,0.164l5.632,12.21
		c0.779,1.69,2.78,2.429,4.47,1.65s2.429-2.78,1.65-4.47l-4.654-10.088l0.052-0.034c3.799-1.949,5.568-4.941,5.568-9.417
		c0-6.05-4.636-10.441-10.5-10.441h-13.485c-1.894,0-3.321,1.505-3.321,3.502v27.888c0,1.86,1.508,3.369,3.369,3.369
		s3.369-1.509,3.369-3.369V42.197z"/>
	<path class="st0" d="M258.02,35.88h-0.003c-0.003-0.004-0.011-0.027-0.011-0.095V28.51c0-0.089,0.015-0.104,0.105-0.104h10.024
		c2.607,0,3.681,2.279,3.681,3.626c0,1.55-1.258,3.858-3.681,3.858h-10.024C258.046,35.89,258.02,35.88,258.02,35.88
		 M258.006,42.197c0-0.088,0.015-0.103,0.103-0.103h7.499c0.135,0,0.18,0.033,0.248,0.164l5.632,12.21
		c0.779,1.69,2.78,2.429,4.47,1.65s2.429-2.78,1.65-4.47l-4.653-10.088l0.051-0.034c3.799-1.949,5.569-4.941,5.569-9.417
		c0-6.05-4.637-10.441-10.501-10.441h-13.485c-1.894,0-3.321,1.505-3.321,3.502v27.888c0,1.86,1.508,3.369,3.369,3.369
		s3.369-1.509,3.369-3.369V42.197z"/>
	<path class="st0" d="M306.405,42.151c1.861,0,3.369-1.508,3.369-3.369c0-1.861-1.508-3.369-3.369-3.369h-14.354v-7.007h14.354
		c1.861,0,3.369-1.508,3.369-3.369c0-1.861-1.508-3.369-3.369-3.369h-17.724c-1.395,0-2.592,0.848-3.104,2.058
		c-0.17,0.403-0.265,0.846-0.265,1.311v28.021c0,1.861,1.509,3.369,3.369,3.369h17.724c1.861,0,3.369-1.508,3.369-3.369
		c0-1.86-1.508-3.369-3.369-3.369h-14.354v-7.538H306.405z"/>
	<path class="st0" d="M79.085,63.476c0,2.563,2.077,4.64,4.64,4.64c2.563,0,4.64-2.077,4.64-4.64s-2.077-4.64-4.64-4.64
		C81.162,58.836,79.085,60.913,79.085,63.476 M83.725,57.925c3.072,0,5.563,2.491,5.563,5.563c0,3.072-2.491,5.563-5.563,5.563
		c-3.072,0-5.563-2.491-5.563-5.563C78.162,60.416,80.653,57.925,83.725,57.925"/>
	<path class="st0" d="M84.201,63.091c-0.031,0.004-0.061,0.003-0.093,0.006c-0.017,0.002-0.032,0.006-0.049,0.008
		c-0.031,0.002-0.068,0.001-0.099,0.003c-0.084,0.006-0.168,0.018-0.25,0.018h-0.271h-1.013v-1.982h1.013h0.271
		c0.082,0,0.166,0.012,0.25,0.018c0.031,0.002,0.068,0.001,0.099,0.004c0.017,0.001,0.032,0.005,0.049,0.007
		c0.032,0.004,0.062,0.002,0.093,0.007c0.017,0.002,0.029,0.011,0.045,0.013c0.119,0.021,0.233,0.05,0.333,0.094
		c0.011,0.005,0.018,0.012,0.028,0.017c0.011,0.005,0.026,0.006,0.037,0.011c0.128,0.067,0.232,0.162,0.313,0.286
		c0.081,0.123,0.122,0.29,0.122,0.498c0,0.014-0.004,0.023-0.004,0.036s0.004,0.023,0.004,0.036c0,0.209-0.041,0.375-0.122,0.499
		c-0.081,0.123-0.185,0.218-0.313,0.285c-0.011,0.006-0.026,0.006-0.037,0.011c-0.01,0.005-0.017,0.013-0.028,0.018
		c-0.1,0.043-0.214,0.072-0.333,0.093C84.23,63.08,84.218,63.088,84.201,63.091 M84.541,63.839c0.466-0.047,0.723-0.202,1.036-0.463
		c0.314-0.262,0.471-0.673,0.471-1.234c0-0.599-0.178-1.045-0.535-1.34c-0.356-0.294-0.905-0.442-1.647-0.442h-2.409v6.231h0.969
		V63.91h1.032l1.697,2.681h1.168L84.541,63.839z"/>
</g>
</svg>
